<?xml version="1.0" encoding="UTF-8"?>
<svg id="Layer_2" data-name="Layer 2" xmlns="http://www.w3.org/2000/svg" viewBox="0 0 235.73 77.39">
  <defs>
    <style>
      .cls-1 {
        fill: #ef233c;
        stroke-width: 0px;
      }
    </style>
  </defs>
  <g id="Layer_1-2" data-name="Layer 1">
    <g>
      <g>
        <path class="cls-1" d="m27.71,44.34c1.98.2,3.91.66,5.79,1.39,1.88.73,3.56,1.72,5.05,2.97,1.48,1.25,2.69,2.76,3.61,4.5.92,1.75,1.39,3.75,1.39,5.99,0,2.84-.59,5.39-1.78,7.67-1.19,2.28-2.79,4.19-4.8,5.74-2.01,1.55-4.32,2.74-6.93,3.56-2.61.82-5.36,1.24-8.26,1.24s-5.58-.41-8.21-1.24c-2.64-.82-4.97-2.01-6.98-3.56-2.01-1.55-3.61-3.46-4.8-5.74-1.19-2.28-1.78-4.83-1.78-7.67h14.84c0,2.24.74,3.76,2.23,4.55,1.48.79,3.05,1.19,4.7,1.19s3.22-.43,4.7-1.29c1.48-.86,2.23-2.14,2.23-3.86,0-1.25-.73-2.37-2.18-3.36-1.45-.99-3.3-1.65-5.54-1.98-2.57-.33-5.1-.96-7.57-1.88-2.47-.92-4.65-2.08-6.53-3.46-1.88-1.39-3.4-2.98-4.55-4.8-1.16-1.81-1.73-3.78-1.73-5.89,0-2.7.56-5.15,1.68-7.32,1.12-2.18,2.66-4.02,4.6-5.54,1.95-1.52,4.21-2.69,6.78-3.51,2.57-.82,5.28-1.24,8.11-1.24s5.62.41,8.16,1.24c2.54.83,4.78,2.01,6.73,3.56,1.95,1.55,3.48,3.45,4.6,5.69,1.12,2.24,1.68,4.82,1.68,7.72h-14.85c0-1.12-.18-2.06-.54-2.82-.36-.76-.84-1.35-1.43-1.78-.59-.43-1.27-.72-2.03-.89-.76-.16-1.53-.25-2.33-.25-1.65,0-3.12.35-4.4,1.04-1.29.69-1.93,1.93-1.93,3.71,0,.79.36,1.53,1.09,2.23.72.69,1.68,1.32,2.87,1.88,1.19.56,2.51,1.02,3.96,1.39,1.45.36,2.9.64,4.35.84Z"/>
        <path class="cls-1" d="m68.28,4.55v17.81h14.84v12.67h-14.84v14.05c0,2.05.4,3.98,1.19,5.79.79,1.82,1.85,3.38,3.17,4.7,1.32,1.32,2.88,2.38,4.7,3.17,1.81.79,3.74,1.19,5.79,1.19v13.46h-1.98c-4.09,0-7.83-.74-11.23-2.23-3.4-1.48-6.32-3.51-8.76-6.09-2.44-2.57-4.34-5.57-5.69-9.01-1.35-3.43-2.03-7.09-2.03-10.99V4.55h14.85Z"/>
        <path class="cls-1" d="m102.33,0c1.19,0,2.29.23,3.31.69,1.02.46,1.91,1.07,2.67,1.83.76.76,1.37,1.65,1.83,2.67.46,1.02.69,2.13.69,3.32s-.23,2.29-.69,3.32c-.46,1.02-1.07,1.93-1.83,2.72s-1.65,1.4-2.67,1.83c-1.02.43-2.13.64-3.31.64-2.37,0-4.39-.82-6.04-2.47-1.65-1.65-2.47-3.66-2.47-6.04,0-1.19.21-2.29.64-3.32.43-1.02,1.04-1.91,1.83-2.67.79-.76,1.7-1.37,2.72-1.83,1.02-.46,2.13-.69,3.32-.69Zm-7.42,22.37h14.84v53.44h-14.84V22.37Z"/>
        <path class="cls-1" d="m123.01,4.55h14.84v71.25h-14.84V4.55Z"/>
        <path class="cls-1" d="m158.54,0c1.19,0,2.29.23,3.31.69,1.02.46,1.91,1.07,2.67,1.83.76.76,1.37,1.65,1.83,2.67.46,1.02.69,2.13.69,3.32s-.23,2.29-.69,3.32c-.46,1.02-1.07,1.93-1.83,2.72s-1.65,1.4-2.67,1.83c-1.02.43-2.13.64-3.31.64-2.37,0-4.39-.82-6.04-2.47-1.65-1.65-2.47-3.66-2.47-6.04,0-1.19.21-2.29.64-3.32.43-1.02,1.04-1.91,1.83-2.67.79-.76,1.7-1.37,2.72-1.83,1.02-.46,2.13-.69,3.32-.69Zm-7.42,22.37h14.84v53.44h-14.84V22.37Z"/>
      </g>
      <path class="cls-1" d="m191.01,46.04l14.95-14.95-4.9-4.9-6.85,6.85c-.08.08-.18.15-.29.19-.11.04-.22.07-.34.07s-.23-.02-.34-.07c-.11-.04-.2-.11-.29-.19l-1.25-1.25c-.34-.34-.34-.9,0-1.25l6.85-6.85-3.74-3.74c-1.38-1.38-3.61-1.38-4.98,0l-9.97,9.97c-1.38,1.38-1.38,3.61,0,4.98l11.13,11.13Zm43.16-12.98c2.08-2.08,2.08-5.46,0-7.55l-5.03-5.03c-2.08-2.08-5.46-2.08-7.55,0l-5.11,5.11,12.58,12.58,5.11-5.11Zm-20.2-4.95l-33,32.99-2.08,11.94c-.28,1.61,1.12,3.01,2.73,2.73l11.94-2.09,32.99-32.99-12.58-12.57Zm20.73,31.71l-3.74-3.74-6.85,6.85c-.34.34-.9.34-1.25,0l-1.25-1.25c-.34-.34-.34-.9,0-1.25l6.85-6.85-4.9-4.9-14.95,14.95,11.13,11.13c1.38,1.38,3.61,1.38,4.98,0l9.97-9.97c1.38-1.38,1.38-3.61,0-4.98Z"/>
    </g>
  </g>
</svg>