<svg width="480" height="480" viewBox="0 0 480 480" fill="none" xmlns="http://www.w3.org/2000/svg">
<path d="M322 186.857C312.19 180.674 300.813 177.294 289.107 177.294C254.977 177.294 227.278 204.993 227.278 239.123C227.278 250.829 230.575 262.123 236.758 271.933C232.966 271.851 229.092 271.439 225.135 270.862C191.252 265.091 163.965 237.639 158.359 203.674C149.044 147.203 197.188 99.0589 253.658 108.374C287.623 113.98 315.075 141.268 320.846 175.15C321.505 179.107 321.918 183.064 322 186.857Z" fill="#2B2D42"/>
<path d="M251.278 270.937C244.023 262.364 239.654 251.235 239.654 239.116C239.654 211.829 261.83 189.653 289.117 189.653C301.235 189.653 312.365 194.022 320.938 201.277" fill="#2B2D42"/>
<path d="M120.296 381.08H100.84L97.256 391H91.112L107.24 346.648H113.96L130.024 391H123.88L120.296 381.08ZM118.632 376.344L110.568 353.816L102.504 376.344H118.632ZM168.157 355.928V391H162.333V385.816C161.224 387.608 159.666 389.016 157.661 390.04C155.698 391.021 153.522 391.512 151.133 391.512C148.402 391.512 145.949 390.957 143.773 389.848C141.597 388.696 139.869 386.989 138.589 384.728C137.352 382.467 136.733 379.715 136.733 376.472V355.928H142.493V375.704C142.493 379.16 143.368 381.827 145.117 383.704C146.866 385.539 149.256 386.456 152.285 386.456C155.4 386.456 157.853 385.496 159.645 383.576C161.437 381.656 162.333 378.861 162.333 375.192V355.928H168.157ZM192.263 360.728H184.903V391H179.079V360.728H174.535V355.928H179.079V353.432C179.079 349.507 180.081 346.648 182.087 344.856C184.135 343.021 187.399 342.104 191.878 342.104V346.968C189.319 346.968 187.505 347.48 186.439 348.504C185.415 349.485 184.903 351.128 184.903 353.432V355.928H192.263V360.728ZM218.637 391L204.877 375.512V391H199.053V343.64H204.877V371.48L218.381 355.928H226.509L209.997 373.4L226.573 391H218.637ZM237.815 343.64V391H231.991V343.64H237.815ZM279.741 372.12C279.741 373.229 279.677 374.403 279.549 375.64H251.517C251.73 379.096 252.903 381.805 255.037 383.768C257.213 385.688 259.837 386.648 262.909 386.648C265.426 386.648 267.517 386.072 269.181 384.92C270.887 383.725 272.082 382.147 272.765 380.184H279.037C278.098 383.555 276.221 386.307 273.405 388.44C270.589 390.531 267.09 391.576 262.909 391.576C259.581 391.576 256.594 390.829 253.949 389.336C251.346 387.843 249.298 385.731 247.805 383C246.311 380.227 245.565 377.027 245.565 373.4C245.565 369.773 246.29 366.595 247.741 363.864C249.191 361.133 251.218 359.043 253.821 357.592C256.466 356.099 259.495 355.352 262.909 355.352C266.237 355.352 269.181 356.077 271.741 357.528C274.301 358.979 276.263 360.984 277.629 363.544C279.037 366.061 279.741 368.92 279.741 372.12ZM273.725 370.904C273.725 368.685 273.234 366.787 272.253 365.208C271.271 363.587 269.927 362.371 268.221 361.56C266.557 360.707 264.701 360.28 262.653 360.28C259.709 360.28 257.191 361.219 255.101 363.096C253.053 364.973 251.879 367.576 251.581 370.904H273.725ZM293.252 362.456C294.447 360.365 296.196 358.659 298.5 357.336C300.804 356.013 303.428 355.352 306.372 355.352C309.529 355.352 312.367 356.099 314.884 357.592C317.401 359.085 319.385 361.197 320.836 363.928C322.287 366.616 323.012 369.752 323.012 373.336C323.012 376.877 322.287 380.035 320.836 382.808C319.385 385.581 317.38 387.736 314.82 389.272C312.303 390.808 309.487 391.576 306.372 391.576C303.343 391.576 300.676 390.915 298.372 389.592C296.111 388.269 294.404 386.584 293.252 384.536V391H287.428V343.64H293.252V362.456ZM317.06 373.336C317.06 370.691 316.527 368.387 315.46 366.424C314.393 364.461 312.943 362.968 311.108 361.944C309.316 360.92 307.332 360.408 305.156 360.408C303.023 360.408 301.039 360.941 299.204 362.008C297.412 363.032 295.961 364.547 294.852 366.552C293.785 368.515 293.252 370.797 293.252 373.4C293.252 376.045 293.785 378.371 294.852 380.376C295.961 382.339 297.412 383.853 299.204 384.92C301.039 385.944 303.023 386.456 305.156 386.456C307.332 386.456 309.316 385.944 311.108 384.92C312.943 383.853 314.393 382.339 315.46 380.376C316.527 378.371 317.06 376.024 317.06 373.336ZM362.678 372.12C362.678 373.229 362.614 374.403 362.486 375.64H334.454C334.667 379.096 335.841 381.805 337.974 383.768C340.15 385.688 342.774 386.648 345.846 386.648C348.363 386.648 350.454 386.072 352.118 384.92C353.825 383.725 355.019 382.147 355.702 380.184H361.974C361.035 383.555 359.158 386.307 356.342 388.44C353.526 390.531 350.027 391.576 345.846 391.576C342.518 391.576 339.531 390.829 336.886 389.336C334.283 387.843 332.235 385.731 330.742 383C329.249 380.227 328.502 377.027 328.502 373.4C328.502 369.773 329.227 366.595 330.678 363.864C332.129 361.133 334.155 359.043 336.758 357.592C339.403 356.099 342.433 355.352 345.846 355.352C349.174 355.352 352.118 356.077 354.678 357.528C357.238 358.979 359.201 360.984 360.566 363.544C361.974 366.061 362.678 368.92 362.678 372.12ZM356.662 370.904C356.662 368.685 356.171 366.787 355.19 365.208C354.209 363.587 352.865 362.371 351.158 361.56C349.494 360.707 347.638 360.28 345.59 360.28C342.646 360.28 340.129 361.219 338.038 363.096C335.99 364.973 334.817 367.576 334.518 370.904H356.662ZM376.19 361.624C377.214 359.619 378.664 358.061 380.542 356.952C382.462 355.843 384.787 355.288 387.518 355.288V361.304H385.982C379.454 361.304 376.19 364.845 376.19 371.928V391H370.366V355.928H376.19V361.624Z" fill="#2B2D42"/>
</svg>
