<svg width="480" height="480" viewBox="0 0 480 480" fill="none" xmlns="http://www.w3.org/2000/svg">
<path d="M188.426 185.425L235.423 138.434L220.016 123.027L198.476 144.567C198.219 144.824 197.914 145.028 197.578 145.167C197.243 145.307 196.882 145.378 196.519 145.378C196.155 145.378 195.795 145.307 195.459 145.167C195.123 145.028 194.818 144.824 194.561 144.567L190.647 140.652C189.564 139.569 189.564 137.816 190.647 136.737L212.186 115.197L200.439 103.446C196.112 99.1196 189.1 99.1196 184.773 103.446L153.445 134.775C149.122 139.101 149.118 146.114 153.445 150.44L188.426 185.425ZM324.086 144.636C330.637 138.085 330.633 127.465 324.086 120.914L308.284 105.112C301.732 98.5608 291.109 98.5608 284.554 105.112L268.484 121.18L308.015 160.711L324.086 144.636ZM260.581 129.086L156.864 232.789L150.312 270.309C149.429 275.369 153.836 279.776 158.9 278.885L196.423 272.306L300.112 168.614L260.581 129.086ZM325.755 228.762L314.007 217.015L292.468 238.555C291.385 239.637 289.632 239.637 288.553 238.555L284.638 234.64C283.559 233.557 283.559 231.804 284.638 230.725L306.178 209.185L290.763 193.771L243.766 240.762L278.761 275.753C283.088 280.08 290.1 280.08 294.427 275.753L325.755 244.428C330.082 240.102 330.082 233.089 325.755 228.762Z" fill="#2B2D42"/>
<path d="M148.816 346.392C153.68 346.392 157.883 347.309 161.424 349.144C165.008 350.936 167.739 353.517 169.616 356.888C171.536 360.259 172.496 364.227 172.496 368.792C172.496 373.357 171.536 377.325 169.616 380.696C167.739 384.024 165.008 386.584 161.424 388.376C157.883 390.125 153.68 391 148.816 391H134.928V346.392H148.816ZM148.816 386.2C154.576 386.2 158.971 384.685 162 381.656C165.029 378.584 166.544 374.296 166.544 368.792C166.544 363.245 165.008 358.915 161.936 355.8C158.907 352.685 154.533 351.128 148.816 351.128H140.752V386.2H148.816ZM212.178 372.12C212.178 373.229 212.114 374.403 211.986 375.64H183.954C184.167 379.096 185.341 381.805 187.474 383.768C189.65 385.688 192.274 386.648 195.346 386.648C197.863 386.648 199.954 386.072 201.618 384.92C203.325 383.725 204.519 382.147 205.202 380.184H211.474C210.535 383.555 208.658 386.307 205.842 388.44C203.026 390.531 199.527 391.576 195.346 391.576C192.018 391.576 189.031 390.829 186.386 389.336C183.783 387.843 181.735 385.731 180.242 383C178.749 380.227 178.002 377.027 178.002 373.4C178.002 369.773 178.727 366.595 180.178 363.864C181.629 361.133 183.655 359.043 186.258 357.592C188.903 356.099 191.933 355.352 195.346 355.352C198.674 355.352 201.618 356.077 204.178 357.528C206.738 358.979 208.701 360.984 210.066 363.544C211.474 366.061 212.178 368.92 212.178 372.12ZM206.162 370.904C206.162 368.685 205.671 366.787 204.69 365.208C203.709 363.587 202.365 362.371 200.658 361.56C198.994 360.707 197.138 360.28 195.09 360.28C192.146 360.28 189.629 361.219 187.538 363.096C185.49 364.973 184.317 367.576 184.018 370.904H206.162ZM232.282 391.576C229.594 391.576 227.183 391.128 225.05 390.232C222.916 389.293 221.231 388.013 219.994 386.392C218.756 384.728 218.074 382.829 217.946 380.696H223.962C224.132 382.445 224.943 383.875 226.394 384.984C227.887 386.093 229.828 386.648 232.218 386.648C234.436 386.648 236.186 386.157 237.466 385.176C238.746 384.195 239.386 382.957 239.386 381.464C239.386 379.928 238.703 378.797 237.338 378.072C235.972 377.304 233.86 376.557 231.002 375.832C228.399 375.149 226.266 374.467 224.602 373.784C222.98 373.059 221.572 372.013 220.378 370.648C219.226 369.24 218.65 367.405 218.65 365.144C218.65 363.352 219.183 361.709 220.25 360.216C221.316 358.723 222.831 357.549 224.794 356.696C226.756 355.8 228.996 355.352 231.514 355.352C235.396 355.352 238.532 356.333 240.922 358.296C243.311 360.259 244.591 362.947 244.762 366.36H238.938C238.81 364.525 238.063 363.053 236.698 361.944C235.375 360.835 233.583 360.28 231.322 360.28C229.231 360.28 227.567 360.728 226.33 361.624C225.092 362.52 224.474 363.693 224.474 365.144C224.474 366.296 224.836 367.256 225.562 368.024C226.33 368.749 227.268 369.347 228.378 369.816C229.53 370.243 231.108 370.733 233.114 371.288C235.631 371.971 237.679 372.653 239.258 373.336C240.836 373.976 242.18 374.957 243.29 376.28C244.442 377.603 245.039 379.331 245.082 381.464C245.082 383.384 244.548 385.112 243.482 386.648C242.415 388.184 240.9 389.4 238.938 390.296C237.018 391.149 234.799 391.576 232.282 391.576ZM256.311 350.232C255.202 350.232 254.263 349.848 253.495 349.08C252.727 348.312 252.343 347.373 252.343 346.264C252.343 345.155 252.727 344.216 253.495 343.448C254.263 342.68 255.202 342.296 256.311 342.296C257.378 342.296 258.274 342.68 258.999 343.448C259.767 344.216 260.151 345.155 260.151 346.264C260.151 347.373 259.767 348.312 258.999 349.08C258.274 349.848 257.378 350.232 256.311 350.232ZM259.127 355.928V391H253.303V355.928H259.127ZM283.517 355.352C286.546 355.352 289.192 356.013 291.453 357.336C293.757 358.659 295.464 360.323 296.573 362.328V355.928H302.461V391.768C302.461 394.968 301.778 397.805 300.413 400.28C299.048 402.797 297.085 404.76 294.525 406.168C292.008 407.576 289.064 408.28 285.693 408.28C281.085 408.28 277.245 407.192 274.173 405.016C271.101 402.84 269.288 399.875 268.733 396.12H274.493C275.133 398.253 276.456 399.96 278.461 401.24C280.466 402.563 282.877 403.224 285.693 403.224C288.893 403.224 291.496 402.221 293.501 400.216C295.549 398.211 296.573 395.395 296.573 391.768V384.408C295.421 386.456 293.714 388.163 291.453 389.528C289.192 390.893 286.546 391.576 283.517 391.576C280.402 391.576 277.565 390.808 275.005 389.272C272.488 387.736 270.504 385.581 269.053 382.808C267.602 380.035 266.877 376.877 266.877 373.336C266.877 369.752 267.602 366.616 269.053 363.928C270.504 361.197 272.488 359.085 275.005 357.592C277.565 356.099 280.402 355.352 283.517 355.352ZM296.573 373.4C296.573 370.755 296.04 368.451 294.973 366.488C293.906 364.525 292.456 363.032 290.621 362.008C288.829 360.941 286.845 360.408 284.669 360.408C282.493 360.408 280.509 360.92 278.717 361.944C276.925 362.968 275.496 364.461 274.429 366.424C273.362 368.387 272.829 370.691 272.829 373.336C272.829 376.024 273.362 378.371 274.429 380.376C275.496 382.339 276.925 383.853 278.717 384.92C280.509 385.944 282.493 386.456 284.669 386.456C286.845 386.456 288.829 385.944 290.621 384.92C292.456 383.853 293.906 382.339 294.973 380.376C296.04 378.371 296.573 376.045 296.573 373.4ZM329.391 355.288C333.658 355.288 337.114 356.589 339.759 359.192C342.404 361.752 343.727 365.464 343.727 370.328V391H337.967V371.16C337.967 367.661 337.092 364.995 335.343 363.16C333.594 361.283 331.204 360.344 328.175 360.344C325.103 360.344 322.65 361.304 320.815 363.224C319.023 365.144 318.127 367.939 318.127 371.608V391H312.303V355.928H318.127V360.92C319.279 359.128 320.836 357.741 322.799 356.76C324.804 355.779 327.002 355.288 329.391 355.288Z" fill="#2B2D42"/>
</svg>
