<svg width="480" height="480" viewBox="0 0 480 480" fill="none" xmlns="http://www.w3.org/2000/svg">
<path d="M337.801 147.613V257.188C337.801 267.271 329.621 275.451 319.539 275.451H161.263C151.18 275.451 143 267.271 143 257.188V147.613C143 137.53 151.18 129.35 161.263 129.35H194.744L199.424 116.833C202.087 109.718 208.898 105 216.507 105H264.256C271.866 105 278.676 109.718 281.339 116.833L286.057 129.35H319.539C329.621 129.35 337.801 137.53 337.801 147.613ZM286.057 202.401C286.057 177.213 265.588 156.744 240.401 156.744C215.213 156.744 194.744 177.213 194.744 202.401C194.744 227.588 215.213 248.057 240.401 248.057C265.588 248.057 286.057 227.588 286.057 202.401ZM273.882 202.401C273.882 220.853 258.853 235.882 240.401 235.882C221.948 235.882 206.919 220.853 206.919 202.401C206.919 183.948 221.948 168.919 240.401 168.919C258.853 168.919 273.882 183.948 273.882 202.401Z" fill="#2B2D42"/>
<path d="M201.144 346.392V351.128H181.752V366.168H197.496V370.904H181.752V391H175.928V346.392H201.144ZM223.474 391.576C220.189 391.576 217.202 390.829 214.514 389.336C211.869 387.843 209.778 385.731 208.242 383C206.749 380.227 206.002 377.027 206.002 373.4C206.002 369.816 206.77 366.659 208.306 363.928C209.885 361.155 212.018 359.043 214.706 357.592C217.394 356.099 220.402 355.352 223.73 355.352C227.058 355.352 230.066 356.099 232.754 357.592C235.442 359.043 237.554 361.133 239.09 363.864C240.669 366.595 241.458 369.773 241.458 373.4C241.458 377.027 240.647 380.227 239.026 383C237.447 385.731 235.293 387.843 232.562 389.336C229.831 390.829 226.802 391.576 223.474 391.576ZM223.474 386.456C225.565 386.456 227.527 385.965 229.362 384.984C231.197 384.003 232.669 382.531 233.778 380.568C234.93 378.605 235.506 376.216 235.506 373.4C235.506 370.584 234.951 368.195 233.842 366.232C232.733 364.269 231.282 362.819 229.49 361.88C227.698 360.899 225.757 360.408 223.666 360.408C221.533 360.408 219.57 360.899 217.778 361.88C216.029 362.819 214.621 364.269 213.554 366.232C212.487 368.195 211.954 370.584 211.954 373.4C211.954 376.259 212.466 378.669 213.49 380.632C214.557 382.595 215.965 384.067 217.714 385.048C219.463 385.987 221.383 386.456 223.474 386.456ZM256.22 360.728V381.4C256.22 383.107 256.582 384.323 257.308 385.048C258.033 385.731 259.292 386.072 261.083 386.072H265.372V391H260.124C256.881 391 254.449 390.253 252.828 388.76C251.206 387.267 250.396 384.813 250.396 381.4V360.728H245.852V355.928H250.396V347.096H256.22V355.928H265.372V360.728H256.22ZM287.724 391.576C284.439 391.576 281.452 390.829 278.764 389.336C276.119 387.843 274.028 385.731 272.492 383C270.999 380.227 270.252 377.027 270.252 373.4C270.252 369.816 271.02 366.659 272.556 363.928C274.135 361.155 276.268 359.043 278.956 357.592C281.644 356.099 284.652 355.352 287.98 355.352C291.308 355.352 294.316 356.099 297.004 357.592C299.692 359.043 301.804 361.133 303.34 363.864C304.919 366.595 305.708 369.773 305.708 373.4C305.708 377.027 304.897 380.227 303.276 383C301.697 385.731 299.543 387.843 296.812 389.336C294.081 390.829 291.052 391.576 287.724 391.576ZM287.724 386.456C289.815 386.456 291.777 385.965 293.612 384.984C295.447 384.003 296.919 382.531 298.028 380.568C299.18 378.605 299.756 376.216 299.756 373.4C299.756 370.584 299.201 368.195 298.092 366.232C296.983 364.269 295.532 362.819 293.74 361.88C291.948 360.899 290.007 360.408 287.916 360.408C285.783 360.408 283.82 360.899 282.028 361.88C280.279 362.819 278.871 364.269 277.804 366.232C276.737 368.195 276.204 370.584 276.204 373.4C276.204 376.259 276.716 378.669 277.74 380.632C278.807 382.595 280.215 384.067 281.964 385.048C283.713 385.987 285.633 386.456 287.724 386.456Z" fill="#2B2D42"/>
</svg>
