<svg width="480" height="480" viewBox="0 0 480 480" fill="none" xmlns="http://www.w3.org/2000/svg">
<path d="M148.249 124.999C140.941 124.999 135.199 131.002 135.199 138.049V242.45C135.199 249.758 141.202 255.5 148.249 255.5H278.75C286.058 255.5 291.8 249.758 291.8 242.45V203.3L317.9 229.4H344V151.099H317.9L291.8 177.2V138.049C291.8 130.741 286.058 124.999 278.75 124.999H148.249Z" fill="#2B2D42"/>
<path d="M189.792 344.392L172.96 389H166.24L149.408 344.392H155.616L169.632 382.856L183.648 344.392H189.792ZM199.186 348.232C198.077 348.232 197.138 347.848 196.37 347.08C195.602 346.312 195.218 345.373 195.218 344.264C195.218 343.155 195.602 342.216 196.37 341.448C197.138 340.68 198.077 340.296 199.186 340.296C200.253 340.296 201.149 340.68 201.874 341.448C202.642 342.216 203.026 343.155 203.026 344.264C203.026 345.373 202.642 346.312 201.874 347.08C201.149 347.848 200.253 348.232 199.186 348.232ZM202.002 353.928V389H196.178V353.928H202.002ZM209.752 371.336C209.752 367.752 210.477 364.616 211.928 361.928C213.379 359.197 215.363 357.085 217.88 355.592C220.44 354.099 223.299 353.352 226.456 353.352C229.187 353.352 231.725 353.992 234.072 355.272C236.419 356.509 238.211 358.152 239.448 360.2V341.64H245.336V389H239.448V382.408C238.296 384.499 236.589 386.227 234.328 387.592C232.067 388.915 229.421 389.576 226.392 389.576C223.277 389.576 220.44 388.808 217.88 387.272C215.363 385.736 213.379 383.581 211.928 380.808C210.477 378.035 209.752 374.877 209.752 371.336ZM239.448 371.4C239.448 368.755 238.915 366.451 237.848 364.488C236.781 362.525 235.331 361.032 233.496 360.008C231.704 358.941 229.72 358.408 227.544 358.408C225.368 358.408 223.384 358.92 221.592 359.944C219.8 360.968 218.371 362.461 217.304 364.424C216.237 366.387 215.704 368.691 215.704 371.336C215.704 374.024 216.237 376.371 217.304 378.376C218.371 380.339 219.8 381.853 221.592 382.92C223.384 383.944 225.368 384.456 227.544 384.456C229.72 384.456 231.704 383.944 233.496 382.92C235.331 381.853 236.781 380.339 237.848 378.376C238.915 376.371 239.448 374.045 239.448 371.4ZM287.178 370.12C287.178 371.229 287.114 372.403 286.986 373.64H258.954C259.167 377.096 260.341 379.805 262.474 381.768C264.65 383.688 267.274 384.648 270.346 384.648C272.863 384.648 274.954 384.072 276.618 382.92C278.325 381.725 279.519 380.147 280.202 378.184H286.474C285.535 381.555 283.658 384.307 280.842 386.44C278.026 388.531 274.527 389.576 270.346 389.576C267.018 389.576 264.031 388.829 261.386 387.336C258.783 385.843 256.735 383.731 255.242 381C253.749 378.227 253.002 375.027 253.002 371.4C253.002 367.773 253.727 364.595 255.178 361.864C256.629 359.133 258.655 357.043 261.258 355.592C263.903 354.099 266.933 353.352 270.346 353.352C273.674 353.352 276.618 354.077 279.178 355.528C281.738 356.979 283.701 358.984 285.066 361.544C286.474 364.061 287.178 366.92 287.178 370.12ZM281.162 368.904C281.162 366.685 280.671 364.787 279.69 363.208C278.709 361.587 277.365 360.371 275.658 359.56C273.994 358.707 272.138 358.28 270.09 358.28C267.146 358.28 264.629 359.219 262.538 361.096C260.49 362.973 259.317 365.576 259.018 368.904H281.162ZM310.162 389.576C306.876 389.576 303.89 388.829 301.202 387.336C298.556 385.843 296.466 383.731 294.93 381C293.436 378.227 292.69 375.027 292.69 371.4C292.69 367.816 293.458 364.659 294.994 361.928C296.572 359.155 298.706 357.043 301.394 355.592C304.082 354.099 307.09 353.352 310.418 353.352C313.746 353.352 316.754 354.099 319.442 355.592C322.13 357.043 324.242 359.133 325.778 361.864C327.356 364.595 328.146 367.773 328.146 371.4C328.146 375.027 327.335 378.227 325.714 381C324.135 383.731 321.98 385.843 319.25 387.336C316.519 388.829 313.49 389.576 310.162 389.576ZM310.162 384.456C312.252 384.456 314.215 383.965 316.05 382.984C317.884 382.003 319.356 380.531 320.466 378.568C321.618 376.605 322.194 374.216 322.194 371.4C322.194 368.584 321.639 366.195 320.53 364.232C319.42 362.269 317.97 360.819 316.178 359.88C314.386 358.899 312.444 358.408 310.354 358.408C308.22 358.408 306.258 358.899 304.466 359.88C302.716 360.819 301.308 362.269 300.242 364.232C299.175 366.195 298.642 368.584 298.642 371.4C298.642 374.259 299.154 376.669 300.178 378.632C301.244 380.595 302.652 382.067 304.402 383.048C306.151 383.987 308.071 384.456 310.162 384.456Z" fill="#2B2D42"/>
</svg>
