<?xml version="1.0" encoding="UTF-8"?><svg id="Ebene_2" xmlns="http://www.w3.org/2000/svg" viewBox="0 0 171.5 56.3"><defs><style>.cls-1{fill:#e63946;}</style></defs><g id="Ebene_1-2"><path class="cls-1" d="M20.16,32.26c1.44.14,2.84.48,4.21,1.01,1.37.53,2.59,1.25,3.67,2.16s1.96,2,2.63,3.28c.67,1.27,1.01,2.72,1.01,4.36,0,2.06-.43,3.92-1.3,5.58-.86,1.66-2.03,3.05-3.49,4.18-1.46,1.13-3.14,1.99-5.04,2.59-1.9.6-3.9.9-6.01.9s-4.06-.3-5.98-.9c-1.92-.6-3.61-1.46-5.08-2.59-1.46-1.13-2.63-2.52-3.49-4.18-.86-1.66-1.3-3.52-1.3-5.58h10.8c0,1.63.54,2.74,1.62,3.31s2.22.86,3.42.86,2.34-.31,3.42-.94c1.08-.62,1.62-1.56,1.62-2.81,0-.91-.53-1.73-1.58-2.45-1.06-.72-2.4-1.2-4.03-1.44-1.87-.24-3.71-.7-5.51-1.37-1.8-.67-3.38-1.51-4.75-2.52-1.37-1.01-2.47-2.17-3.31-3.49-.84-1.32-1.26-2.75-1.26-4.28,0-1.97.41-3.74,1.22-5.33.82-1.58,1.93-2.93,3.35-4.03,1.42-1.1,3.06-1.96,4.93-2.56,1.87-.6,3.84-.9,5.9-.9s4.09.3,5.94.9c1.85.6,3.48,1.46,4.9,2.59,1.42,1.13,2.53,2.51,3.35,4.14.82,1.63,1.22,3.5,1.22,5.62h-10.8c0-.82-.13-1.5-.4-2.05-.26-.55-.61-.98-1.04-1.3-.43-.31-.92-.53-1.48-.65-.55-.12-1.12-.18-1.69-.18-1.2,0-2.27.25-3.2.76s-1.4,1.4-1.4,2.7c0,.58.26,1.12.79,1.62.53.5,1.22.96,2.09,1.37.86.41,1.82.74,2.88,1.01,1.06.26,2.11.47,3.17.61Z"/><path class="cls-1" d="M49.68,3.31v12.96h10.8v9.22h-10.8v10.22c0,1.49.29,2.89.86,4.21.58,1.32,1.34,2.46,2.3,3.42.96.96,2.1,1.73,3.42,2.3,1.32.58,2.72.86,4.21.86v9.79h-1.44c-2.98,0-5.7-.54-8.17-1.62-2.47-1.08-4.6-2.56-6.37-4.43-1.78-1.87-3.16-4.05-4.14-6.55-.98-2.5-1.48-5.16-1.48-7.99V3.31h10.8Z"/><path class="cls-1" d="M74.45,0c.86,0,1.67.17,2.41.5.74.34,1.39.78,1.94,1.33.55.55,1,1.2,1.33,1.94.34.75.5,1.55.5,2.41s-.17,1.67-.5,2.41c-.34.74-.78,1.4-1.33,1.98-.55.58-1.2,1.02-1.94,1.33-.74.31-1.55.47-2.41.47-1.73,0-3.19-.6-4.39-1.8-1.2-1.2-1.8-2.66-1.8-4.39,0-.86.16-1.67.47-2.41.31-.74.76-1.39,1.33-1.94.58-.55,1.24-1,1.98-1.33.74-.33,1.55-.5,2.41-.5ZM69.05,16.27h10.8v38.88h-10.8V16.27Z"/><path class="cls-1" d="M89.49,3.31h10.8v51.84h-10.8V3.31Z"/><path class="cls-1" d="M115.34,0c.86,0,1.67.17,2.41.5.74.34,1.39.78,1.94,1.33.55.55,1,1.2,1.33,1.94.34.75.5,1.55.5,2.41s-.17,1.67-.5,2.41-.78,1.4-1.33,1.98c-.55.58-1.2,1.02-1.94,1.33-.74.31-1.55.47-2.41.47-1.73,0-3.19-.6-4.39-1.8-1.2-1.2-1.8-2.66-1.8-4.39,0-.86.15-1.67.47-2.41.31-.74.76-1.39,1.33-1.94.58-.55,1.24-1,1.98-1.33.74-.33,1.55-.5,2.41-.5ZM109.94,16.27h10.8v38.88h-10.8V16.27Z"/><path class="cls-1" d="M127.15,55.15l15.62-20.38-14.04-18.5h12.96l7.63,10.66,7.63-10.66h12.96l-14.04,18.5,15.62,20.38h-13.1l-9.07-12.53-9.07,12.53h-13.1Z"/></g></svg>